<?xml version="1.0" encoding="utf-8"?>
<!-- Generator: Adobe Illustrator 19.0.0, SVG Export Plug-In . SVG Version: 6.00 Build 0)  -->
<svg version="1.1" id="Layer_1" xmlns="http://www.w3.org/2000/svg" xmlns:xlink="http://www.w3.org/1999/xlink" x="0px" y="0px"
	 viewBox="0 0 1700 400" style="enable-background:new 0 0 1700 400;" xml:space="preserve">
<path id="XMLID_1_" d="M125,184h58v8.8c0,46.2-3.9,77.5-12,93.7c-8,16.6-22.8,24.9-44.7,24.9c-22.7,0-38.8-9.2-48.4-27.7
	c-9.5-18.5-14.3-49.5-14.3-93.1c0-49.8,5.2-83,15.7-99.5c9.8-15.5,25-23.2,45.4-23.2c15.6,0,27.7,3.7,36.5,11.2
	c8.8,7.6,15.7,20,20.6,37.4l-29.8,12.5c-1.3-6.3-2.8-11.5-4.5-15.8c-1.6-4.3-3.4-7.6-5.4-9.9c-3.9-4.8-9.7-7.2-17.5-7.2
	c-10.7,0-17.9,6.6-21.8,19.7c-3.9,13.7-5.8,38.4-5.8,74c0,36,2,60.3,6,73.1c4,12.7,11.5,19.1,22.6,19.1c10.2,0,17.3-4.5,21.4-13.5
	c4.2-9.6,6.3-25.1,6.3-46.5v-6.5V211h-28V184z M275,149h29v159h-29v-20c-4,8.7-8.4,14.7-12.6,18c-4.2,3.3-9.7,4.9-16.6,4.9
	c-13.2,0-22.9-6.8-29.1-20.3s-9.2-34.8-9.2-63.7c0-27.6,3.1-47.9,9.2-60.8c6.2-13,15.8-19.5,29.1-19.5c12.1,0,22.2,6.9,29.2,20.6
	V149z M275.9,228.9c0-19.3-1.5-33.5-4.5-42.8c-3-8.6-7.7-12.9-14.3-12.9c-7,0-11.9,4.1-14.9,12.3c-2.9,7.6-4.3,21.8-4.3,42.6
	c0,20.9,1.4,35.5,4.2,43.8c2.9,8.3,7.9,12.5,15.1,12.5c6.6,0,11.3-4.3,14.3-12.9C274.5,262.3,275.9,248.1,275.9,228.9z M462.5,146.6
	c-14.4,0-25.4,7.4-33.2,22.3c-5.2-14.9-15.3-22.3-29.9-22.3c-13.4,0-24.4,7.4-32.4,22.3V149h-29v159h29V203.7
	c0-11.1,1.5-18.9,4.4-23.5c2.9-4.6,7.7-6.9,14.5-6.9c3.2,0,5.9,0.5,8,1.6c2.2,1.1,3.9,2.8,5.2,5.2c1.3,2.4,2.4,5.5,2.9,9.4
	c0.6,3.9,0.9,8.7,0.9,14.3V308h30V203.7c0-11.8,1.4-19.8,3.8-24c2.6-4.3,7.5-6.5,14.5-6.5c6.3,0,10.3,2.1,12.4,6.3
	c2.3,4.1,3.2,12.2,3.2,24.1V308h30V181.5c0-11.5-3-20.2-8.9-26.1C482.2,149.6,473.7,146.6,462.5,146.6z M620,230.9v4.1h-67
	c0,34,6.8,51,20.3,51c12.3,0,18.5-11,18.5-31h27.4c-2.2,37-17.5,56-46.1,56c-8.5,0-15.8-1.7-21.9-4.9c-6.1-3.2-11.2-8.1-15.2-14.8
	c-4-6.7-7-15.1-8.8-25.4c-1.9-10.3-2.9-22.5-2.9-36.6c0-28.1,3.9-48.9,11.7-62.4c7.8-13.5,19.9-20.3,36.3-20.3
	C604.1,146.6,620,174.7,620,230.9z M590.2,213c-1.2-16-3.1-27.5-5.7-32.8c-2.7-5.8-7-8.6-12.9-8.6c-6.1,0-10.4,2.8-12.9,8.7
	c-2.6,5.2-4.5,16.7-5.7,32.7H590.2z M726.1,98.8c-11.7,20.7-17.6,52.3-17.6,94.7c0,78.5,23.8,117.8,71.9,117.8
	c9.5,0,18.6-2.2,25.6-6.5v-29.4c-7,3.3-13.5,4.9-18.7,4.9c-30,0-45-29.3-45-88c0-16.3,0.9-30.4,2.6-42.4c1.7-11.9,4.3-21.8,7.9-29.6
	c3.5-7.8,8-13.6,13.5-17.3c5.4-3.7,11.7-5.6,19.3-5.6c5.5,0,12.4,2,20.4,6V74.8c-8-4.7-17.3-7.1-26.2-7.1
	C755.6,67.7,737.8,78.1,726.1,98.8z M922.6,192.8c2,10.5,3,22.9,3,37.4c0,53.8-16.7,80.7-50,80.7c-33.3,0-50-27.3-50-82
	c0-54.9,16.6-82.3,49.8-82.3c8.6,0,16.1,1.6,22.4,4.9c6.3,3.3,11.5,8.4,15.6,15.2C917.6,173.6,920.6,182.3,922.6,192.8z
	 M895.2,229.4c0-20.9-1.4-35.5-4.2-43.7c-2.8-8.3-7.7-12.5-14.8-12.5c-7,0-11.9,4.1-14.9,12.3c-2.8,8.2-4.2,22.5-4.2,42.9
	c0,20.4,1.4,34.7,4.2,42.8c3,8.2,7.9,12.3,14.9,12.3c7,0,11.8-4,14.6-12.2C893.7,263.8,895.2,249.8,895.2,229.4z M1014.8,146.6
	c-13.3,0-23.8,7-32.8,20.9V149h-29v159h29V205.5c0-6.2,0.5-11.3,1.2-15.5c0.7-4.2,1.8-7.6,3.3-10.2c1.4-2.6,3.4-4.5,5.7-5.7
	c2.3-1.2,5.2-1.8,8.6-1.8c6.3,0,10.7,2.3,13.2,6.8c2.6,4.5,3.9,11.9,3.9,22.7l0.2,106.2h29.1V195.2c0-16.5-1.5-27.6-4.6-33.4
	C1036.9,151.7,1027.7,146.6,1014.8,146.6z M1113,105h-29v44h-16v24h16v135h29V173h16v-24h-16V105z M1180,169.1V149h-30v159h30v-96
	c0-13.3,2.1-22.7,6.6-28c4.5-5.4,11.9-8.2,22.4-8.2c1.4,0,3,0.2,5,0.5v-30.8c-8,0.5-14.4,2.5-19.3,5.8S1185,160.7,1180,169.1z
	 M1326.5,192.8c2,10.5,3,22.9,3,37.4c0,53.8-16.7,80.7-50,80.7c-33.3,0-50-27.3-50-82c0-54.9,16.6-82.3,49.8-82.3
	c8.6,0,16.1,1.6,22.4,4.9c6.3,3.3,11.5,8.4,15.6,15.2C1321.5,173.6,1324.5,182.3,1326.5,192.8z M1299.1,229.4
	c0-20.9-1.4-35.5-4.2-43.7c-2.8-8.3-7.7-12.5-14.8-12.5c-7,0-11.9,4.1-14.9,12.3c-2.8,8.2-4.2,22.5-4.2,42.9
	c0,20.4,1.4,34.7,4.2,42.8c3,8.2,7.9,12.3,14.9,12.3c7,0,11.8-4,14.6-12.2C1297.6,263.8,1299.1,249.8,1299.1,229.4z M1357,308h29V47
	h-29V308z M1420,308h29V47h-29V308z M1572,230.9v4.1h-66.8c0,34,6.8,51,20.3,51c12.3,0,18.5-11,18.5-31h27.4
	c-2.2,37-17.5,56-46.1,56c-8.5,0-15.8-1.7-21.9-4.9c-6.1-3.2-11.2-8.1-15.2-14.8c-4-6.7-7-15.1-8.9-25.4
	c-1.9-10.3-2.9-22.5-2.9-36.6c0-28.1,3.9-48.9,11.7-62.4c7.8-13.5,19.9-20.3,36.3-20.3C1556.3,146.6,1572,174.7,1572,230.9z
	 M1542.4,213c-1.2-16-3.1-27.5-5.7-32.8c-2.7-5.8-7-8.6-12.9-8.6c-6.1,0-10.4,2.8-12.9,8.7c-2.6,5.2-4.5,16.7-5.7,32.7H1542.4z
	 M1642.7,151.4c-4.9,3.4-9.7,9.3-14.7,17.7V149h-29v159h29v-96c0-13.3,2.2-22.7,6.6-28c4.5-5.4,11.8-8.2,22.4-8.2c1.4,0,3,0.2,5,0.5
	v-30.8C1654,146.1,1647.6,148,1642.7,151.4z"/>
</svg>
